<?xml version="1.0" encoding="UTF-8"?>
<!DOCTYPE svg PUBLIC "-//W3C//DTD SVG 1.1//EN" "http://www.w3.org/Graphics/SVG/1.1/DTD/svg11.dtd">
<!-- Creator: CorelDRAW -->
<svg xmlns="http://www.w3.org/2000/svg" xml:space="preserve" width="254mm" height="254mm" version="1.1" style="shape-rendering:geometricPrecision; text-rendering:geometricPrecision; image-rendering:optimizeQuality; fill-rule:evenodd; clip-rule:evenodd"
viewBox="0 0 25399.98 25399.98"
 xmlns:xlink="http://www.w3.org/1999/xlink"
 xmlns:xodm="http://www.corel.com/coreldraw/odm/2003">
 <defs>
  <style type="text/css">
   <![CDATA[
    .fil4 {fill:none;fill-rule:nonzero}
    .fil2 {fill:#FEFEFE}
    .fil6 {fill:#0047A0}
    .fil7 {fill:#FEFEFE;fill-rule:nonzero}
    .fil3 {fill:#FEFEFE;fill-rule:nonzero}
    .fil5 {fill:#FEFEFE;fill-rule:nonzero}
    .fil1 {fill:#0047A0;fill-rule:nonzero}
    .fil0 {fill:#CD2E3A;fill-rule:nonzero}
   ]]>
  </style>
    <clipPath id="id0" style="clip-rule:nonzero">
     <path d="M12021.31 16026.45l671.25 0 -908.87 -2304.85 908.87 -1853.38 -653.43 0 -855.41 1811.8 0 -1811.8 -653.44 0 0 4158.23 653.44 0 0 -1277.17 201.97 -380.18 635.62 1657.35z"/>
    </clipPath>
 </defs>
 <g id="Слой_x0020_1">
  <metadata id="CorelCorpID_0Corel-Layer"/>
  <g id="_2389951043728">
   <path class="fil0" d="M4343.12 9376.05c1835.47,-4614.6 7066.21,-6868.4 11680.83,-5032.93 4614.59,1835.43 6868.4,7066.19 5032.95,11680.81l-16713.78 -6647.88z"/>
   <path class="fil1" d="M4343.12 9376.05c-1835.43,4614.62 418.38,9845.38 5032.97,11680.83 4614.6,1835.43 9845.35,-418.38 11680.81,-5032.95 917.73,-2307.33 -209.17,-4922.71 -2516.47,-5840.42 -2307.32,-917.73 -4922.69,209.19 -5840.41,2516.49l-8356.9 -3323.95z"/>
   <circle class="fil0" transform="matrix(0.837527 -2.10568 2.10568 0.837528 8521.56 11038)" r="1984.37"/>
   <path class="fil2" d="M12699.99 5841.99c3787.56,0 6858,3070.44 6858,6858 0,3787.56 -3070.44,6858 -6858,6858 -3787.56,0 -6858,-3070.44 -6858,-6858 0,-3787.56 3070.44,-6858 6858,-6858zm4612.39 2245.61c-1180.39,-1180.38 -2811.12,-1910.47 -4612.39,-1910.47 -1801.27,0 -3432,730.09 -4612.38,1910.47 -1180.39,1180.39 -1910.48,2811.13 -1910.48,4612.39 0,1801.26 730.09,3432 1910.48,4612.39 1180.38,1180.38 2811.11,1910.47 4612.38,1910.47 1801.27,0 3432,-730.09 4612.39,-1910.47 1180.38,-1180.39 1910.47,-2811.12 1910.47,-4612.39 0,-1801.27 -730.09,-3432 -1910.47,-4612.39z"/>
   <polygon class="fil3" points="12021.31,16026.45 12692.56,16026.45 11783.69,13721.6 12692.56,11868.22 12039.13,11868.22 11183.72,13680.02 11183.72,11868.22 10530.28,11868.22 10530.28,16026.45 11183.72,16026.45 11183.72,14749.28 11385.69,14369.1 "/>
   <g style="clip-path:url(#id0)">
    <g>
     <g>
      <path id="_1" class="fil0" d="M21056.91 16023.94c-1835.47,4614.6 -7066.21,6868.4 -11680.83,5032.93 -4614.59,-1835.43 -6868.4,-7066.19 -5032.95,-11680.81l16713.78 6647.88z"/>
      <path class="fil1" d="M21056.91 16023.94c1835.43,-4614.62 -418.38,-9845.38 -5032.97,-11680.83 -4614.6,-1835.43 -9845.35,418.38 -11680.81,5032.95 -917.73,2307.33 209.17,4922.71 2516.47,5840.42 2307.32,917.73 4922.69,-209.19 5840.41,-2516.49l8356.9 3323.95z"/>
      <circle class="fil0" transform="matrix(-0.837527 2.10568 -2.10568 -0.837528 16878.5 14362)" r="1984.37"/>
     </g>
    </g>
   </g>
   <polygon class="fil4" points="12021.31,16026.45 12692.56,16026.45 11783.69,13721.6 12692.56,11868.22 12039.13,11868.22 11183.72,13680.02 11183.72,11868.22 10530.28,11868.22 10530.28,16026.45 11183.72,16026.45 11183.72,14749.28 11385.69,14369.1 "/>
   <path class="fil5" d="M12045.53 15991.17l595.26 0 -895.52 -2271.02 890.86 -1816.65 -574.74 0 -912.95 1933.68 0 -1933.68 -582.88 0 0 4087.67 582.88 0 0 -1250.66 242.43 -456.34 654.66 1707zm647.03 70.56l-695.46 0 -616.59 -1607.71 -161.51 304.03 0 1303.68 -724 0 0 -4228.79 724 0 0 1689.92 797.87 -1689.92 732.12 0 -926.88 1890.1 922.21 2338.69 -51.76 0z"/>
   <polyline class="fil4" points="16616.22,16026.45 17287.48,16026.45 17287.48,11868.22 16705.32,11868.22 16705.32,14357.22 16034.07,11868.22 15214.3,11868.22 15214.3,16026.45 15802.39,16026.45 15802.39,13014.7 16616.22,16026.45 "/>
   <polygon class="fil3" points="17281.76,16061.73 16583.53,16061.73 15831.95,13280.33 15831.95,16061.73 15173.29,16061.73 15173.3,11832.94 16055.32,11832.94 16664.32,14091.08 16664.32,11832.94 17317.04,11832.94 17317.04,16061.73 "/>
   <path class="fil3" d="M12854.02 14980.94l0 -3148 723.99 0 0 3189.58c0,139.04 29.33,232.22 81.96,289.51 51.25,55.78 127.17,79.15 221.36,79.15 94.2,0 170.11,-23.36 221.36,-79.15 52.63,-57.29 81.96,-150.47 81.96,-289.51l0 -3189.58 688.36 0 0 3148c0,344.59 -87.8,615.72 -260.25,800.78 -170.18,182.63 -420.97,280 -749.24,280 -328.27,0 -579.07,-97.37 -749.25,-280 -172.43,-185.05 -260.25,-456.18 -260.25,-800.78z"/>
   <path class="fil3" d="M9472.2 14279.64l-671.98 0 0 1782.09 -724.01 0 0 -4228.79 724.01 0 0 1782.1 671.98 0 0 -1782.1 735.86 0c0.4,1409.59 0.4,2819.2 0,4228.79l-735.86 0 0 -1782.09z"/>
   <path class="fil6" d="M12699.99 3245.55c2610.74,0 4974.37,1058.23 6685.29,2769.15 1710.92,1710.92 2769.15,4074.55 2769.15,6685.29 0,2610.74 -1058.23,4974.37 -2769.15,6685.29 -1710.92,1710.92 -4074.55,2769.15 -6685.29,2769.15 -2610.74,0 -4974.37,-1058.23 -6685.29,-2769.15 -1710.92,-1710.92 -2769.15,-4074.55 -2769.15,-6685.29 0,-2610.74 1058.23,-4974.37 2769.15,-6685.29 1710.92,-1710.92 4074.55,-2769.15 6685.29,-2769.15zm0 141.11c5143.61,0 9313.33,4169.72 9313.33,9313.33 0,5143.61 -4169.72,9313.33 -9313.33,9313.33 -5143.61,0 -9313.33,-4169.72 -9313.33,-9313.33 0,-5143.61 4169.72,-9313.33 9313.33,-9313.33z"/>
   <path class="fil3" d="M12635.96 9624.08l0 -1076.97c-41.18,-46.03 -93.29,-85.39 -155.72,-118.37 -235.7,-124.52 -587.07,-141.35 -863.32,-133.88l-441.58 1029.78c421.7,-138.27 1120.25,8.43 1460.62,299.44zm-1231.75 -2511.39c845.48,168.7 684.31,-312.09 727.14,-359.14l40.43 -9.83c280.37,102.96 774.52,101.97 1056.67,-0.1 24.77,-8.96 51.32,9.99 49.81,37.36 -23.47,424.14 404.5,393.9 717.5,331.7 26.23,-5.21 52.07,18.73 42.39,49.15 -83.42,262.29 -230.01,427.41 -472.85,569.65l0 493.98c43.57,-1.3 242.06,-7.93 264.62,6.94 18.19,11.98 66.31,139.5 78.15,167.11 33.49,1.04 148.49,8.3 163.92,41.88l62.54 135.7c33.94,0.59 149.09,8.06 164.77,42.38 48.51,106.15 492.72,1052.67 491.36,1075.58 -1.16,19.62 -19.25,34.02 -39.44,32.85 -354.1,-20.52 -1556.87,-95.17 -1872.71,114.6 -43.8,29.09 -313.24,29.09 -357.04,0 -367.06,-243.77 -1851.4,-99.56 -1891.42,-118.08 -17.11,-7.92 -25.82,-27.45 -17.72,-45.03l497.45 -1071.93c22.06,-18.78 121.78,-29.78 155.67,-30.37l72.57 -148.47c21.12,-16.82 121.2,-28.09 153.89,-29.11 11.86,-27.65 59.92,-155.06 78.15,-167.07 23.31,-15.36 232.64,-7.87 264.62,-6.86l0 -494.1c-239.4,-140.22 -392.37,-309.15 -473,-570.2 -9.09,-29.45 15.89,-53.78 42.53,-48.59zm2086.46 1115.85l0 -529.08 1.66 0c13.51,-45.67 296.29,-133.78 436.74,-452.86 -831.61,562.7 -1626.55,562.7 -2458.16,0 133.09,302.1 413.94,413.97 432.59,443.5 3.66,5.83 5.81,12.68 5.81,19.95l0 518.79 59.3 3.98 0 -568.2 1.68 0c7.53,-21.96 29.18,-31.78 49.04,-24.09 325,125.91 685.97,156.95 1028.65,93.96 113,-20.77 223.83,-51.79 330.32,-93.05 27.63,-11.8 53.07,8.59 53.07,33.77l0 557.09c19.77,-1.46 39.55,-2.71 59.3,-3.76zm-1095.53 85.38l0 -363.11c0,-20.54 16.8,-37.31 37.31,-37.31l535.08 0c20.54,0 37.31,16.8 37.31,37.31l0 357.74c111.53,-36.19 233.22,-57.49 351.9,-69.68l0 -510.1c-419.27,149.17 -894.23,149.16 -1313.5,0l0 511.05c124.93,13.72 238.84,36.63 351.9,74.1zm535.08 21.82l0 -347.61 -460.46 0 0 353.08c85.62,34.47 169.78,80.67 230.22,140.53 61.53,-61.65 140.44,-109.36 230.24,-146zm-933.65 -1166.7c-125.36,60.65 -291.59,61.09 -442.78,43.23 777.31,508.92 1515.1,508.9 2292.41,0 -307.53,36.33 -632.02,-11.97 -642.77,-382.01 -286.89,86.56 -720.02,86.59 -1006.87,0 -4.45,152.51 -63.41,272.69 -199.99,338.78zm767.45 1378.04l0 1077c340.37,-291.01 1038.92,-437.72 1460.62,-299.44l-441.58 -1029.78c-310.06,-8.38 -802.01,9.66 -1019.04,252.22zm-1690.99 829.26l387.47 -903.59 -71.26 11.63 -454.18 985.81c518.3,-76.01 1150.48,-35.48 1633.9,191.19 -337.03,-273.98 -1069.02,-422.03 -1443.78,-241.57 -31.66,15.25 -64.65,-14.12 -52.15,-43.47zm1269.19 269.27c-452.45,-155.55 -1001.7,-173.59 -1461.85,-96.29 -28.98,4.87 -52.39,-22.47 -40.73,-47.87l392.85 -852.82 -70.2 13.01 -436.16 946.71c447.5,-26.34 1147.85,-60.09 1616.09,37.26zm1597.26 -1172.86l387.47 903.59c12.53,29.3 -20.46,58.75 -52.15,43.47 -374.3,-180.49 -1106.68,-32.45 -1443.77,241.57 483.42,-226.68 1115.58,-267.2 1633.89,-191.19l-454.18 -985.81 -71.26 -11.63zm-388.7 1059.53c-167.57,22.35 -335.18,59.14 -492.8,113.29 468.28,-97.32 1168.37,-63.56 1615.87,-37.22l-436.16 -946.7 -70.2 -13.02 392.88 852.77c11.6,25.35 -11.71,52.83 -40.76,47.92 -311.87,-52.66 -650.97,-59.41 -968.83,-17.04z"/>
   <path class="fil5" d="M5662.47 15260.39l-795.32 269.11 -47.28 -139.75 330.63 -111.87 -128.4 -379.48 -330.63 111.88 -47.28 -139.75 795.31 -269.11 47.29 139.75 -335.17 113.41 128.4 379.47 335.17 -113.4 47.28 139.74zm-299.42 -1097.69l-781 436.76 -28.04 -157.05 577.61 -306.61 -651.45 -93.25 -21.93 -122.79 578.92 -312.94 -648.03 -87.76 -27.2 -152.32 883.89 139.46 22.35 125.16 -557.66 309.14 630.19 97.04 22.35 125.16zm-136.15 -920.55l-854.68 -347.94 -3.45 -136.69 836 -390.68 3.94 155.87 -200.49 90.26 10.03 396.89 204.83 81.21 3.82 151.08zm-340.7 -282.95l-7.31 -288.96 -332.07 153.57 339.38 135.39zm376.91 -1014.96c-10.13,133.15 -63.62,246.16 -160.51,339.03l-98.51 -96.5c78.92,-78.21 121.9,-163.54 128.94,-256.04 3.45,-45.45 -3.58,-82.26 -21.08,-110.46 -17.5,-28.2 -42.6,-43.54 -75.29,-46.02 -31.1,-2.37 -56.98,8.49 -77.66,32.58 -20.68,24.09 -42.63,72.95 -65.87,146.56 -30.52,95.51 -65.21,164.04 -104.05,205.6 -38.86,41.55 -94.95,59.54 -168.31,53.96 -71.75,-5.46 -128.13,-36.61 -169.11,-93.45 -40.99,-56.86 -58.3,-127.14 -51.93,-210.86 8.73,-114.81 51.51,-213.41 128.35,-295.77l105.22 87.39c-63.29,72.97 -97.75,146.54 -103.39,220.69 -3.21,42.26 3.82,76.28 21.1,102.05 17.29,25.77 40.68,39.78 70.19,42.03 32.68,2.48 59.02,-8.95 78.99,-34.29 19.97,-25.35 42.53,-76.77 67.67,-154.24 29.36,-90.8 64.42,-156.49 105.21,-197.09 40.77,-40.61 95.04,-58.33 162.82,-53.18 77.34,5.88 136.25,38.02 176.71,96.44 40.46,58.4 57.3,132.26 50.51,221.57zm37.42 -473.2l-818.11 -188.82 33.18 -143.75 340.1 78.49 90.09 -390.35 -340.1 -78.49 33.18 -143.75 818.11 188.82 -33.18 143.75 -344.77 -79.58 -90.09 390.35 344.76 79.57 -33.17 143.76zm219.41 -893.18l-807.67 -229.36 40.3 -141.92 807.67 229.36 -40.3 141.92zm109.05 -355.64l-781.08 -307.98 50.15 -127.21 705.06 -205.48 -540.06 -212.95 53.23 -135.02 781.08 307.99 -45.31 114.93 -725.52 211.6 555.68 219.11 -53.23 135.01zm532.15 -1194.17l-706.83 -453.13 79.62 -124.2 355.43 227.86 -139.87 -564.11 97.75 -152.48 115.56 488.69 599.69 -48.68 -96.45 150.45 -472.79 37.43 42.53 182.56 204.98 131.41 -79.62 124.2zm829.22 -1360.93c15.25,117.77 -16.4,226.63 -94.96,326.59 -78.56,99.97 -176.29,156.39 -293.19,169.27 -116.91,12.87 -223.14,-18.24 -318.7,-93.34 -94.31,-74.11 -149.09,-170.05 -164.35,-287.81 -15.26,-117.76 16.39,-226.62 94.95,-326.58 78.56,-99.97 176.29,-156.39 293.2,-169.27 116.91,-12.88 223.14,18.23 318.71,93.34 94.3,74.11 149.08,170.04 164.34,287.8zm-394.77 348.02c78.93,-6.62 143.84,-42.3 194.74,-107.06 50.89,-64.75 70.12,-135.83 57.72,-213.21 -12.42,-77.39 -51.63,-142.02 -117.64,-193.9 -65.39,-51.39 -137.55,-73.76 -216.48,-67.16 -78.94,6.63 -143.84,42.32 -194.73,107.07 -50.89,64.76 -70.14,135.83 -57.72,213.21 12.4,77.39 51.62,142.02 117.63,193.9 65.38,51.39 137.54,73.77 216.48,67.15zm692.61 -499.44l-579.36 -607.69 270.85 -258.22c70.61,-67.32 142.57,-102.51 215.89,-105.57 73.32,-3.05 138.12,24.94 194.4,83.97 45.8,48.03 70.43,99.94 73.9,155.74 3.48,55.79 -10.99,111.3 -43.42,166.52l383.41 73.62 -125.88 120.01 -353 -67.81 -131.96 125.81 201.95 211.82 -106.78 101.8zm-185.38 -408.25l156.26 -148.98c38.2,-36.42 59.75,-74.65 64.67,-114.68 4.92,-40.04 -7.81,-75.98 -38.15,-107.81 -30.9,-32.4 -65.62,-46.81 -104.17,-43.21 -38.55,3.61 -77.79,24.45 -117.72,62.52l-155.39 148.15 194.5 204.01zm823.49 -178.7l-518.8 -660.15 489.45 -384.65 81.53 103.74 -373.46 293.49 134.89 171.64 331.02 -260.14 81.52 103.74 -331.01 260.14 139.33 177.29 378.17 -297.2 81.53 103.74 -494.17 388.36zm576.07 -453.88l-101.26 -917.21 118.54 -68.16 741.77 548.91 -135.17 77.72 -174.87 -133.28 -344.18 197.91 26.19 218.78 -131.02 75.33zm86.46 -434.35l250.59 -144.09 -293.23 -218.8 42.64 362.89zm1454.06 -330.39c-103.4,40.77 -196.26,43.44 -278.57,7.99 -82.31,-35.45 -145.46,-108.97 -189.46,-220.55l-177.31 -449.68 137.25 -54.12 175.11 444.1c28.15,71.41 67.34,119.58 117.56,144.47 50.21,24.9 106.19,25.17 167.94,0.83 61.74,-24.35 102.57,-61.94 122.5,-112.77 19.92,-50.84 15.95,-111.59 -11.92,-182.26l-177.31 -449.68 137.25 -54.12 174.67 442.99c44.88,113.81 49.37,212.39 13.47,295.74 -35.91,83.35 -106.29,145.7 -211.18,187.06zm525.54 -206.04l-188.81 -818.1 133.23 -30.75 568.83 464.51 -130.56 -565.66 141.41 -32.64 188.82 818.1 -120.37 27.78 -585.46 -477.89 134.33 582.02 -141.42 32.63zm934.12 -202.82l-105.84 -832.91 146.36 -18.6 105.84 832.92 -146.36 18.59zm645.24 -65.36l-412.16 -816.71 162.66 -12.37 301.28 624.25 202.22 -662.54 159.07 -12.1 -283.91 869.64 -129.16 9.83zm621.41 -27.33l21.22 -839.34 622.31 15.73 -3.34 131.9 -474.82 -12.01 -5.52 218.23 420.86 10.65 -3.33 131.89 -420.87 -10.64 -5.7 225.42 480.83 12.16 -3.34 131.9 -628.3 -15.89zm803.74 35.76l147.59 -826.54 368.39 65.78c96.05,17.15 166.96,54.39 212.78,111.72 45.81,57.32 61.55,126.13 47.21,206.42 -11.67,65.34 -38.97,115.89 -81.92,151.68 -42.94,35.79 -96.27,56.94 -159.97,63.43l167.29 352.75 -171.21 -30.57 -154 -324.79 -179.48 -32.05 -51.45 288.1 -145.23 -25.93zm219.66 -390.88l212.54 37.96c51.96,9.27 95.53,4.05 130.72,-15.65 35.21,-19.71 56.67,-51.21 64.4,-94.51 7.87,-44.07 -1.04,-80.6 -26.74,-109.56 -25.7,-28.95 -65.7,-48.28 -120.01,-57.98l-211.36 -37.74 -49.55 277.48zm913.26 637.96c-128.46,-36.47 -228.53,-111.43 -300.21,-224.89l114.2 -77.29c60.91,92.93 135.95,152.07 225.19,177.41 43.84,12.45 81.32,12.91 112.45,1.38 31.12,-11.53 51.15,-33.06 60.11,-64.6 8.52,-30 3.04,-57.53 -16.44,-82.6 -19.49,-25.06 -62.98,-56.32 -130.48,-93.78 -87.5,-48.95 -147.75,-96.61 -180.72,-142.96 -32.97,-46.36 -39.41,-104.92 -19.31,-175.69 19.66,-69.22 61.43,-118.26 125.3,-147.07 63.88,-28.83 136.21,-31.77 216.98,-8.84 110.76,31.45 198.84,93.04 264.23,184.76l-106.62 85.68c-58.89,-76.58 -124.1,-125.01 -195.64,-145.33 -40.76,-11.57 -75.5,-11.47 -104.21,0.33 -28.69,11.8 -47.09,31.93 -55.17,60.39 -8.96,31.54 -3,59.62 17.84,84.24 20.86,24.63 66.74,56.99 137.65,97.07 83.12,46.88 140.5,94.34 172.15,142.41 31.66,48.05 38.2,104.77 19.64,170.15 -21.19,74.62 -64.43,125.93 -129.75,153.93 -65.3,28 -141.03,29.77 -227.19,5.3zm463.47 131.94l269.11 -795.32 139.74 47.29 -269.1 795.32 -139.75 -47.29zm538.07 210.72l289.53 -640.47 -242.63 -109.68 56.33 -124.6 620.79 280.64 -56.32 124.6 -242.64 -109.69 -289.54 640.47 -135.52 -61.27zm729.57 368.8l165.03 -286.99 -35.55 -607.08 150.77 86.69 18.45 439.53 391.23 -203.95 146.61 84.3 -540.79 271.54 -166.81 290.1 -128.94 -74.14zm815.3 542.14l518.8 -660.15 115.99 91.16 -518.79 660.15 -116 -91.16zm298.15 223.67l579.36 -607.69 98.97 94.36 -75.04 730.54 400.59 -420.17 105.04 100.14 -579.36 607.69 -89.42 -85.25 77.08 -751.8 -412.18 432.32 -105.04 -100.14zm913.45 934.19l660.15 -518.8 84.49 107.51 -178.52 712.36 456.45 -358.71 89.67 114.11 -660.14 518.8 -76.34 -97.14 183.56 -733.11 -469.64 369.09 -89.68 -114.11zm724.28 1066.47c-55.41,-96.36 -71.58,-187.83 -48.51,-274.43 23.07,-86.6 86.61,-159.79 190.58,-219.58l419.04 -240.96 73.54 127.9 -413.84 237.96c-66.54,38.27 -108.48,84.06 -125.79,137.36 -17.31,53.31 -9.42,108.73 23.66,166.27 33.09,57.53 76.22,92.45 129.42,104.76 53.2,12.3 112.72,-0.48 178.57,-38.35l419.04 -240.96 73.54 127.9 -412.8 237.36c-106.05,60.99 -202.93,79.8 -290.62,56.44 -87.69,-23.38 -159.63,-83.93 -215.83,-181.67zm276.14 490.97l765.06 -345.87 154.16 341c40.18,88.9 49.6,168.44 28.24,238.65 -21.36,70.2 -69.19,122.11 -143.51,155.7 -60.48,27.34 -117.61,33.43 -171.42,18.26 -53.8,-15.16 -101.41,-47.18 -142.8,-96.04l-196.24 337.51 -71.65 -158.48 180.71 -310.73 -75.1 -166.13 -266.68 120.56 -60.77 -134.43zm446.58 -39.98l88.93 196.73c21.75,48.09 50.7,81.07 86.86,98.95 36.16,17.88 74.28,17.75 114.36,-0.37 40.79,-18.44 65.87,-46.45 75.22,-84.02 9.34,-37.57 2.64,-81.5 -20.09,-131.77l-88.44 -195.63 -256.84 116.11zm-128.5 769.96l914.36 124.39 37.36 131.54 -712.54 586.36 -42.59 -149.99 171.74 -137.29 -108.46 -381.92 -218.59 -27.71 -41.28 -145.38zm400.38 189.3l78.96 278.07 283.43 -231.36 -362.39 -46.71zm-138.4 795.75l826.53 -147.59 109.85 615.17 -132.24 23.62 -83.92 -469.95 -225.52 40.28 74.42 416.8 -132.24 23.62 -74.43 -416.81 -336.52 60.09 -25.93 -145.23zm127.91 1071.61c-10.12,-133.15 25.67,-252.95 107.39,-359.41l111.98 80.49c-66.19,89.25 -95.77,180.11 -88.74,272.6 3.46,45.45 15.97,80.78 37.54,106.01 21.56,25.22 48.69,36.59 81.38,34.1 31.1,-2.36 55.05,-17.01 71.84,-43.95 16.8,-26.94 31.12,-78.56 42.96,-154.83 15.72,-99.03 39.64,-172.03 71.76,-218.98 32.12,-46.95 84.85,-73.21 158.21,-78.79 71.75,-5.46 132.19,16.81 181.29,66.8 49.12,50 76.86,116.86 83.22,200.58 8.74,114.81 -18.64,218.74 -82.14,311.78l-117.23 -70.48c51.53,-81.7 74.47,-159.63 68.83,-233.78 -3.21,-42.26 -15.31,-74.82 -36.29,-97.69 -20.99,-22.85 -46.23,-33.17 -75.74,-30.92 -32.68,2.48 -56.98,17.77 -72.89,45.84 -15.91,28.07 -30.44,82.31 -43.57,162.7 -15.29,94.19 -40.01,164.43 -74.19,210.73 -34.17,46.31 -85.13,72.03 -152.91,77.19 -77.34,5.88 -140.43,-16.98 -189.27,-68.61 -48.82,-51.61 -76.63,-122.08 -83.43,-211.38zm26.43 472.55l839.34 21.22 -3.73 147.48 -348.92 -8.82 -10.13 400.48 348.93 8.82 -3.73 147.49 -839.34 -21.23 3.73 -147.48 353.71 8.94 10.13 -400.48 -353.72 -8.94 3.73 -147.48zm-35.53 839.82l767.5 512.32 -24.04 134.62 -897.38 215.02 27.41 -153.5 214.52 -48.2 69.79 -390.83 -184.37 -120.65 26.57 -148.78zm277.01 345.55l-50.82 284.55 356.13 -83.83 -305.31 -200.72zm-473.18 654.67l807.68 229.36 -37.35 131.54 -681.32 274.1 558.45 158.58 -39.65 139.61 -807.67 -229.35 33.74 -118.84 701.08 -282.22 -574.6 -163.17 39.64 -139.61z"/>
   <path class="fil5" d="M8887.79 19694.88l-297.46 460.4 -102.78 -66.4 632.15 -978.42 102.78 66.4 -273.39 423.13 146.26 94.48 -61.3 94.9 -146.26 -94.49zm-170.08 -838.66l87.2 56.32 -80.18 124.1 246.84 159.47 -61.3 94.88c-198.93,-128.39 -397.76,-256.93 -596.6,-385.46l61.3 -94.88 247.83 160.13 80.17 -124.09 14.74 9.53zm-307.25 666.84l-68.85 106.57c52.64,32.83 100.94,62.44 144.81,88.69 48.65,29.12 92.66,54.64 131.93,76.46l15.27 8.47 -52.96 97.63 -15.6 -8.81c-90.65,-51.25 -190.16,-110.1 -298.44,-176.48 -109.04,-66.83 -227.32,-141.46 -354.75,-223.79l-13.22 -8.55 49.98 -101.02 16.53 10.69c44.21,28.56 89.85,57.64 136.95,87.28 44.07,27.74 89.27,55.91 135.54,84.49l69.2 -107.11c-26.08,-21.72 -47.69,-44.16 -64.78,-67.26 -20.21,-27.31 -34.22,-55.6 -41.97,-84.78 -7.75,-29.48 -9.58,-57.91 -5.45,-85.2 4.14,-27.37 14.23,-53.52 30.29,-78.38 18.09,-27.99 40.49,-49.77 67.15,-65.28 26.53,-15.42 57.04,-24.51 91.51,-27.22 34.01,-2.67 69.34,1.67 105.95,13.04 36.04,11.19 73.25,29.2 111.64,54 37.91,24.49 69.32,50.69 94.14,78.54 25.27,28.34 43.82,58.43 55.59,90.18 11.83,32.26 16.42,63.27 13.76,93.09 -2.7,30.12 -12.76,58.66 -30.17,85.61 -16.89,26.15 -37.26,47.08 -61.1,62.74 -23.82,15.67 -50.94,25.96 -81.3,30.83 -30.12,4.74 -61.62,3.59 -94.52,-3.49 -27.89,-6 -56.95,-16.32 -87.13,-30.94zm131.35 -314.47c-24.46,-15.79 -47.7,-27.36 -69.7,-34.68 -21.49,-7.15 -41.95,-10.32 -61.34,-9.55 -18.74,0.75 -35,4.84 -48.73,12.26 -13.41,7.26 -24.69,17.92 -33.76,31.98 -9.05,14.01 -14.1,28.55 -15.15,43.59 -1.07,15.44 1.94,31.74 9.01,48.84 7.27,17.61 18.66,34.76 34.13,51.39 15.9,17.06 36.09,33.54 60.6,49.37 24.11,15.64 47.19,27.12 69.2,34.49 21.34,7.15 41.59,10.37 60.75,9.7 18.51,-0.65 34.56,-4.65 48.09,-11.94 13.29,-7.16 24.42,-17.69 33.35,-31.51 9.11,-14.11 14.27,-28.79 15.4,-44.03 1.15,-15.51 -1.77,-31.97 -8.79,-49.37 -7.23,-17.94 -18.46,-35.21 -33.64,-51.75 -15.63,-17.03 -35.45,-33.3 -59.42,-48.79zm1200.42 1109.99l336.27 -749.25 111.79 50.17 -343.45 765.26 -111.79 -50.17 7.18 -16.01zm-135.77 -227.71c-18.84,-27.59 -35.95,-57.26 -51.31,-88.9 -15.38,-31.69 -29.06,-65.47 -41.01,-101.19 -11.84,-35.64 -20.84,-68.62 -26.95,-98.99 -3.42,-16.96 -5.95,-33.15 -7.6,-48.58 -14.93,11.84 -31.39,23.5 -49.36,34.96 -29.75,18.97 -63.54,37.41 -101.25,55.29 -37.86,17.94 -74.04,32.14 -108.45,42.62 -34.65,10.54 -67.41,17.25 -98.22,20.07l-12.91 1.18 -47.45 -116.17 24.92 -1.11c43.5,-1.95 86.28,-9.46 128.27,-22.5 42.16,-13.13 83.58,-31.82 124.21,-56.08 40.44,-24.03 74.84,-51.11 103.18,-81.18 28,-29.72 50.02,-62.36 65.95,-97.85l66.72 -148.67 109.97 49.35 -66.7 148.61c-14.44,32.19 -22.7,67.43 -24.74,105.62 -2.06,38.61 2.23,80.44 12.89,125.37 10.71,45.51 25.02,86.82 42.87,123.96 17.77,36.94 39.16,70.02 64.18,99.18l15.64 18.21 -114.73 48.68 -8.12 -11.88zm-537.83 242.46l154.22 -343.63 112.34 50.41 -115.57 257.53 581.79 261.1 -45.83 102.13c-231.43,-103.72 -462.8,-207.6 -694.13,-311.53l7.18 -16.01zm2236.51 392.3l-95.56 -33.92 5.94 -16.61c17.43,-48.67 32.87,-95.07 46.32,-139.12 11.77,-38.55 22.39,-76.36 31.84,-113.34l-683.3 -111.1 2.03 -121.53 706.39 126.65 37.47 -156.79 -643.47 -149.57 25.35 -109.07c254.41,59.25 508.85,118.43 763.32,177.43l-63.77 274.31c-15.67,67.41 -32.75,131.49 -51.22,192.19 -18.55,60.98 -38.26,117.79 -59.08,170.34l-6.26 15.8 -16 -5.67zm-896.58 -21.91l21.88 -94.13 411.24 95.61 62.47 -268.72 119.39 27.75 -62.47 268.72 524.77 121.97 -25.85 111.22 -1055.4 -245.33 3.97 -17.09zm1984.78 498.72l87.13 -1144.01 122.23 9.32c-29.58,387.17 -59.16,774.34 -88.44,1161.53l-122.25 -9.3 1.33 -17.54zm-734.17 -300.1l35.37 -464.5 428.55 32.64 17.09 -224.58 -428.53 -32.65 8.59 -112.87 550.79 41.95 -34.1 447.94 -428.17 -32.59 -19.7 258.66c133.84,10.02 243.41,16.39 328.6,19.07 88.77,2.79 151.73,1.69 188.77,-3.31l18.9 -2.56 5.92 111.77 -16.52 1.82c-48,5.28 -125.54,6.09 -232.46,2.39 -106.96,-3.69 -242.6,-11.8 -406.84,-24.3l-17.59 -1.34 1.33 -17.54zm1978.75 -324.53l44.99 591.01 -122.03 9.28c-29.28,-387.2 -58.89,-774.38 -88.45,-1161.55l122.04 -9.28 34.77 456.65 190.36 -14.49 8.68 113.87 -190.36 14.51zm-536.1 348.16c-45.34,3.45 -87.21,-2.55 -125.52,-18 -38.31,-15.45 -72.8,-40.23 -103.38,-74.3 -30.39,-33.73 -54.37,-74.64 -71.89,-122.64 -17.28,-47.36 -28.27,-101.61 -32.91,-162.68 -4.7,-61.78 -2.2,-117.38 7.5,-166.78 9.83,-50.05 27.14,-93.89 51.9,-131.56 25.01,-38.04 55.32,-67.49 90.93,-88.3 35.63,-20.82 76.46,-33.01 122.44,-36.5 46.02,-3.5 88.32,2.47 126.87,17.91 38.57,15.47 73.08,40.32 103.5,74.55 30.08,33.86 53.79,74.71 71.1,122.54 17.09,47.25 27.96,101.25 32.57,161.99 4.65,61 2.06,116.15 -7.7,165.42 -9.89,49.92 -27.21,93.96 -51.88,132.07 -25.04,38.42 -55.45,68.24 -91.17,89.35 -35.69,21.1 -76.51,33.45 -122.36,36.93zm-52.39 -687.88c-26.75,2.03 -50.39,9.95 -70.85,23.69 -20.71,13.92 -38.54,34.05 -53.43,60.35 -15.32,26.99 -25.99,58.37 -32.01,94.14 -6.12,36.36 -7.43,77.35 -3.97,122.92 6.76,88.74 29.69,158.11 68.76,208.07 19.13,24.25 40.02,41.87 62.62,52.77 22.19,10.69 46.45,15.06 72.73,13.06 26.02,-1.97 49.16,-9.99 69.36,-23.99 20.56,-14.26 38.48,-34.98 53.68,-62.09 15.61,-27.56 26.53,-59.23 32.76,-94.95 6.3,-36.14 7.77,-76.38 4.4,-120.67 -3.44,-45.27 -10.96,-85.45 -22.5,-120.48 -11.34,-34.41 -26.6,-63.84 -45.73,-88.2 -18.65,-23.94 -39.28,-41.2 -61.83,-51.85 -22.39,-10.57 -47.09,-14.81 -73.99,-12.77zm2196.17 573.71l-154.11 -548.47 -106.03 29.79 149.52 532.13 -116.65 32.78 -299.59 -1066.22 116.64 -32.77 119.46 425.13 106.03 -29.79 -125.62 -447.08 118.38 -33.26c105.13,373.79 210.22,747.6 315.11,1121.45l-118.38 33.26 -4.76 -16.95zm-366.26 -212.82c-51.39,20.4 -115.56,42.87 -192.43,67.41 -77.32,24.69 -166.58,51.25 -267.74,79.67l-16.94 4.75 -205.82 -732.49 451.13 -126.76 30.61 108.95 -333.71 93.77 144.59 514.6 83.53 -23.47c57.08,-16.04 107.79,-31.42 152.02,-46.11 44.48,-14.78 83.04,-29.06 115.58,-42.81l16.96 -7.18 38.21 103.32 -15.99 6.35zm323.77 -724.72l-39.39 -87.07 265.75 -120.18 -56.69 -125.33 113.17 -51.18 56.68 125.32 263.2 -119.05 46.65 103.14 -642.11 290.42 -7.26 -16.07zm930.68 -155.41l104.22 230.4 -111.71 50.52c-99.1,-219.35 -198.29,-438.67 -297.59,-657.93l111.69 -50.54 146.74 324.4 155.18 -70.2 46.65 103.15 -155.18 70.2zm-415.16 436.58c-40.83,18.47 -79.48,30.67 -115.92,36.56 -37.01,6 -71.6,5.48 -103.74,-1.55 -32.56,-7.03 -60.49,-19.62 -83.63,-37.66 -23.28,-18.15 -41.46,-41.63 -54.45,-70.36 -12.92,-28.56 -18.46,-57.53 -16.67,-86.84 1.77,-29.03 10.81,-58.2 27.02,-87.49 16.03,-29 38.6,-55.38 67.66,-79.17 28.55,-23.37 63.47,-44.38 104.69,-63.02 41.21,-18.63 80.08,-31.01 116.63,-37.03 37.19,-6.14 71.89,-5.69 104.05,1.34 32.62,7.13 60.49,19.64 83.52,37.52 23.27,18.06 41.39,41.38 54.3,69.95 12.86,28.42 18.29,57.43 16.31,86.9 -1.96,29.2 -11.22,58.59 -27.74,88.06 -16.33,29.22 -38.98,55.81 -67.92,79.72 -28.66,23.6 -63.36,44.65 -104.11,63.07zm-129.91 -289.65c-25.96,11.74 -47.99,24.55 -66,38.4 -17.56,13.51 -31.41,28.09 -41.45,43.7 -9.68,14.91 -15.26,29.4 -16.78,43.48 -1.49,13.73 0.86,27.45 7.02,41.07 6.02,13.33 14.64,23.98 25.8,31.91 11.55,8.2 26.12,13.77 43.69,16.66 18.24,3.01 38.41,2.45 60.38,-1.72 22.45,-4.24 46.81,-12.29 73.03,-24.15 26.35,-11.91 48.52,-24.91 66.5,-38.92 17.6,-13.72 31.3,-28.48 41.13,-44.22 9.46,-15.14 14.92,-29.78 16.37,-43.83 1.41,-13.63 -0.91,-27.15 -6.94,-40.49 -6.15,-13.59 -14.88,-24.4 -26.15,-32.33 -11.59,-8.15 -26.15,-13.54 -43.68,-16.11 -18.41,-2.76 -38.49,-1.99 -60.28,2.28 -22.45,4.4 -46.67,12.52 -72.64,24.27zm712.8 521.37l-118.2 -261.34 -592.32 267.91 -46.17 -102.05c234.38,-105.82 468.69,-211.84 702.94,-317.93l171.62 379.45 -110.61 50.03 -7.26 -16.07zm923.11 -984.9l-93.52 45.42 -7.85 -15.46c-25.52,-50.25 -53.03,-101 -82.5,-152.23 -29.68,-51.6 -61.51,-104.03 -95.47,-157.3l-79.01 -123.92 -566.37 361.08 -61.45 -96.35c224.06,-142.72 448.11,-285.48 672.02,-428.45l140.45 220.29c30.24,47.43 60.36,97.82 90.34,151.13 30.08,53.5 60.57,110.86 91.42,172.02l8.04 15.94 -16.1 7.83zm-644.79 650.67l-52.22 -81.9 228.59 -145.73 -206.24 -323.47 102.27 -65.21 206.24 323.49 139.28 -88.8 -206.23 -323.47 102.76 -65.54 206.24 323.49 340.67 -217.21 61.66 96.71c-304.45,194.27 -609.04,388.33 -913.58,582.45l-9.44 -14.81z"/>
   <path class="fil5" d="M18984.25 17585.39c-2.65,-30.41 -16.64,-60.42 -44.02,-83.4 -26.36,-22.12 -59.24,-31.47 -91.03,-28.69 -31.78,2.78 -62.52,17.69 -84.63,44.04 -22.98,27.39 -31.54,59.4 -28.88,89.82 1.45,16.7 6.31,33 14.02,47.81 7.71,14.81 18.28,28.14 31.1,38.9 23.37,19.61 54.5,30.93 90.15,27.82 35.63,-3.11 64.3,-19.67 83.9,-43.03 10.79,-12.86 18.88,-27.82 23.89,-43.7 5.01,-15.91 6.96,-32.82 5.5,-49.57zm-512.96 -18.4c0.83,9.59 -2,19.53 -8.69,27.5l-0.07 0.08c-6.69,7.93 -15.97,12.44 -25.54,13.28 -9.59,0.84 -19.52,-1.99 -27.49,-8.67l-0.58 -0.5c-7.63,-6.66 -11.98,-15.77 -12.79,-25.14 -0.84,-9.59 1.98,-19.53 8.68,-27.5 6.7,-8 16.02,-12.52 25.62,-13.36 9.59,-0.83 19.54,2 27.51,8.69 7.99,6.71 12.52,16.02 13.35,25.62zm321.4 -383.13c0.83,9.59 -2,19.53 -8.69,27.5l-0.07 0.08c-6.69,7.93 -15.97,12.44 -25.54,13.28 -9.59,0.84 -19.52,-1.99 -27.49,-8.67l-0.58 -0.5c-7.63,-6.66 -11.98,-15.77 -12.79,-25.14 -0.84,-9.59 2.01,-19.53 8.68,-27.5 6.7,-8 16.02,-12.52 25.62,-13.36 9.59,-0.83 19.54,2 27.51,8.69 7.99,6.71 12.52,16.02 13.35,25.62zm455.02 214.78l-0.38 0.45c-6.72,7.73 -15.85,12.1 -25.25,12.91 -9.58,0.84 -19.54,-2 -27.51,-8.68 -7.98,-6.7 -12.52,-16.02 -13.35,-25.62 -0.83,-9.59 2,-19.54 8.69,-27.51l0.62 -0.7c6.67,-7.54 15.71,-11.84 25,-12.65 9.57,-0.84 19.52,2 27.49,8.68l0.58 0.5c7.63,6.66 11.97,15.75 12.79,25.13 0.83,9.57 -2.01,19.52 -8.68,27.49zm-26.15 471.38c0.83,9.59 -2,19.53 -8.69,27.5l-0.07 0.08c-6.69,7.93 -15.97,12.44 -25.54,13.28 -9.59,0.84 -19.52,-1.99 -27.49,-8.67l-0.58 -0.5c-7.63,-6.66 -11.98,-15.77 -12.79,-25.14 -0.84,-9.59 1.98,-19.53 8.68,-27.5 6.7,-8 16.02,-12.52 25.62,-13.36 9.59,-0.83 19.54,2 27.51,8.69 7.99,6.71 12.52,16.02 13.35,25.62zm-485.22 121.03c0.84,9.59 -1.99,19.53 -8.68,27.51 -6.71,7.99 -16.02,12.52 -25.62,13.35 -9.59,0.83 -19.54,-2 -27.51,-8.69l-0.7 -0.62c-7.54,-6.67 -11.84,-15.7 -12.65,-25 -0.84,-9.57 2,-19.52 8.68,-27.49l0.53 -0.62c6.66,-7.61 15.73,-11.93 25.1,-12.75 9.57,-0.83 19.52,2.01 27.49,8.68l0.57 0.49c7.64,6.67 11.98,15.77 12.79,25.14zm195.75 50.38l-60.95 -244.34c-8.46,0.47 -16.82,0.42 -25.04,-0.15 -8.36,-0.58 -16.64,-1.68 -24.77,-3.28l-40.17 99.44c-3.88,9.62 -11.32,16.78 -20.15,20.53 -8.84,3.75 -19.14,4.14 -28.73,0.27 -9.63,-3.88 -16.78,-11.31 -20.53,-20.16 -3.75,-8.83 -4.14,-19.13 -0.27,-28.72l40.22 -99.54c-7.02,-4.53 -13.74,-9.49 -20.09,-14.82 -6.36,-5.34 -12.42,-11.09 -18.1,-17.21l-211.5 132.19c-21.9,13.7 -36.6,32.32 -44.7,52.72 -6.64,16.7 -8.92,34.71 -7.2,52.28 1.7,17.51 7.45,34.65 16.84,49.66 11.54,18.45 28.66,33.68 50.63,42.45 7.26,2.73 13.04,6.86 17.3,12.31 4.28,5.48 6.89,12.07 7.82,19.73 2.75,22.61 8.24,42.83 17.82,60.37 9.45,17.3 23.09,32.26 42.23,44.67 9.84,6.37 21.69,9.97 33.97,11.45 14.84,1.8 30.18,0.56 43.58,-2.49 27.18,-6.2 42.67,-18.01 54.51,-27.05 16.05,-12.25 27.03,-20.6 47.7,-11.96 21.54,9 43.95,10.26 64.72,5.51 17.53,-4.01 33.92,-12.27 47.64,-23.72 13.7,-11.42 24.83,-26.08 31.86,-42.9 8.33,-19.9 10.92,-42.9 5.36,-67.24zm-472.42 -237.97l213.96 -133.72c-2.97,-7.68 -5.49,-15.63 -7.53,-23.82 -1.99,-8.02 -3.5,-16.25 -4.5,-24.64l-107.07 -7.48c-10.38,-0.73 -19.47,-5.62 -25.77,-12.88 -6.29,-7.25 -9.83,-16.93 -9.1,-27.26 0.73,-10.34 5.62,-19.43 12.88,-25.73 7.25,-6.29 16.93,-9.83 27.26,-9.1l106.97 7.49c2.15,-8.08 4.8,-15.98 7.89,-23.64 3.13,-7.78 6.76,-15.33 10.85,-22.63l-193.17 -162.1c-18.69,-14.95 -39.95,-22.65 -61.12,-24.14 -18.26,-1.28 -36.48,1.99 -52.98,9.16 -16.51,7.18 -31.35,18.28 -42.81,32.59 -13.27,16.55 -22.07,37.54 -23.78,61.87 -1.56,22.07 -16.03,29.08 -32.24,36.94l-6.13 3.14c-16.24,8.35 -30.32,19.9 -41.48,33.73 -11.17,13.84 -19.48,30.01 -24.15,47.54 -2.83,10.64 -2.79,22.15 -0.83,33.49 2.35,13.58 7.47,26.93 13.71,38.44 14.64,27.06 31.86,38.98 44.94,48.01 16.75,11.58 28.3,19.59 26.38,42.13 -0.73,12.05 0.39,23.53 3.03,34.21 2.78,11.23 7.31,21.71 13.2,31.13 15.95,25.52 40.91,42.87 68.57,49.67 26.96,6.62 56.58,3.21 83.02,-12.4zm80.8 -523.04l193.28 162.15c6.48,-5.31 13.3,-10.21 20.39,-14.65 7.11,-4.41 14.45,-8.4 21.97,-11.89l-26.29 -105.47c-2,-9.62 -0.15,-19.18 4.56,-27.02 4.92,-8.23 13.04,-14.63 23.08,-17.14l1.51 -0.34c9.55,-1.99 19.12,-0.14 26.94,4.56 8.25,4.94 14.62,13.04 17.15,23.1l25.97 104.19c8.44,-0.47 16.8,-0.42 25,0.14 8.35,0.58 16.61,1.68 24.74,3.28l94.28 -233.29c8.66,-22.74 9.46,-45.58 4.27,-66.35 -4.41,-17.66 -13.15,-33.88 -25.02,-47.28 -11.85,-13.39 -26.9,-24.02 -43.92,-30.51 -19.99,-7.63 -42.78,-9.57 -66.45,-3.65 -6.43,1.61 -12.97,1.44 -19.01,-0.22 -3.69,-1.01 -7.2,-2.58 -10.39,-4.62l-0.82 0.41 -19.81 -19.67c-12.86,-12.76 -28.23,-22.61 -44.94,-29 -15.4,-5.89 -31.96,-8.86 -48.71,-8.49l-3.9 0.22c-12.11,0.66 -24.21,4.95 -35.39,11.33 -13.25,7.56 -25.17,18.06 -34.38,29.04 -17.07,20.35 -22.55,38.43 -26.74,52.29 -4.75,15.69 -8.26,27.26 -21.14,33.74l0.17 1.05 -9.5 2.37c-23.64,5.89 -42.8,18.22 -56.81,34.18 -12.08,13.77 -20.43,30.27 -24.62,47.73 -4.19,17.49 -4.27,36.01 0.15,53.76 5.13,20.6 16.41,40.22 34.38,56.05zm522.24 -84.27l-94.27 233.36c7.03,4.54 13.74,9.5 20.11,14.84 6.38,5.35 12.44,11.11 18.13,17.24l91.05 -56.88c8.77,-5.48 18.96,-6.89 28.32,-4.74 9.37,2.17 17.93,7.92 23.43,16.72 5.48,8.79 6.89,19 4.73,28.33 -2.15,9.37 -7.92,17.93 -16.72,23.43l-90.95 56.83c2.96,7.66 5.47,15.61 7.51,23.79 1.99,8.01 3.51,16.23 4.51,24.59l251.51 17.6c24.08,1.13 45.89,-5.15 63.93,-16.42 15.46,-9.65 28.2,-22.99 37.28,-38.45 9.1,-15.48 14.56,-33.13 15.44,-51.35 1.03,-21.31 -4.18,-43.54 -17.1,-64.22 -11.73,-18.78 -4.04,-33.2 4.4,-49.01l3.13 -6.01c8.19,-16.21 12.78,-33.83 13.67,-51.56 0.88,-17.78 -1.9,-35.76 -8.42,-52.65 -4.58,-11.87 -13.21,-22.68 -23.67,-31.79 -12.44,-10.84 -27.34,-19.17 -41.26,-24.12 -22.11,-7.87 -39.37,-7.54 -52.84,-7.27 -17,0.32 -29.39,0.57 -39.74,-10.73l-0.78 0.26 -4.4 -7.05c-12.94,-20.71 -30.7,-35.15 -50.38,-43.52 -16.74,-7.13 -34.96,-9.91 -52.84,-8.51 -17.88,1.4 -35.44,7.02 -50.86,16.65 -18.14,11.33 -33.42,28.31 -42.92,50.64zm242.12 470.06l-251.44 -17.55c-2.14,8.09 -4.79,16.01 -7.9,23.7 -3.12,7.73 -6.75,15.26 -10.82,22.54l82.2 68.98c7.98,6.72 12.49,15.99 13.33,25.55 0.83,9.55 -2,19.47 -8.66,27.42l-0.39 0.46c-6.69,7.7 -15.8,12.06 -25.18,12.87 -9.55,0.84 -19.47,-1.98 -27.43,-8.66l-82.23 -69c-6.47,5.28 -13.27,10.16 -20.32,14.57 -7.09,4.4 -14.4,8.38 -21.9,11.87l60.88 244.25c6.32,23.34 19.08,42.24 35.44,55.96 13.96,11.72 30.58,19.74 48.07,23.62 17.48,3.86 35.92,3.62 53.56,-1.16 20.62,-5.57 40.15,-17.39 55.83,-36.08 14.28,-17.01 30.21,-14.18 47.93,-11.02l6.8 1.2c17.87,2.77 36.07,1.66 53.31,-3.01 17.18,-4.64 33.4,-12.84 47.43,-24.25 9.21,-7.49 16.31,-17.64 21.51,-28.85 6.28,-13.51 9.82,-28.44 11.05,-42.24 2.49,-27.67 -3.96,-46.14 -8.9,-60.28 -5.44,-15.6 -9.49,-27.19 -2.77,-40.13l-0.73 -0.73 6.23 -7.41c15.71,-18.71 23.96,-39.99 25.89,-61.2 1.64,-18.16 -1.32,-36.38 -8.2,-52.99 -6.85,-16.55 -17.63,-31.52 -31.59,-43.23 -16.32,-13.69 -37.06,-22.97 -61,-25.2zm-308.73 -690.59c35.25,25 61.54,61.91 73.12,104.06 37.62,-22.33 82.21,-30.68 124.98,-24.17 43.85,6.68 85.85,28.96 116.59,67.71l0.61 -0.01c28.8,-0.4 57.01,5.29 82.88,16.32 25.93,11.07 49.59,27.53 69.21,48.57 15.34,16.47 26.22,36.55 33.13,57.91 7.56,23.36 10.4,48.39 9.22,71.98 -0.81,16.35 -3.24,30.91 -7.29,44.97 -3.65,12.56 -8.52,24.67 -14.66,37.3 21.3,44.54 22.9,92.02 9.7,134.36 -12.86,41.26 -39.86,77.68 -76.38,101.73 32.85,28.89 54.53,68.73 61.54,111.43 7.2,43.82 -0.99,90.68 -28.25,131.81l0.18 0.52c9.28,27.23 12.57,55.86 10.05,83.96 -2.53,28.11 -10.89,55.7 -24.91,80.87 -11,19.75 -26.67,36.29 -44.81,49.43 -19.79,14.36 -42.63,24.75 -65.53,30.95 -15.61,4.22 -30.22,6.4 -45.02,6.9 -12.97,0.44 -26,-0.45 -39.94,-2.39 -35.77,34.02 -80.51,50.23 -124.94,50.75 -43.25,0.51 -86.23,-13.88 -120.38,-41.18 -17.34,40.14 -48.51,73.08 -86.93,92.93 -39.4,20.37 -86.46,27.05 -134.05,13.8 -11.4,8.26 -22.48,15.16 -34.14,20.87 -13.24,6.47 -27.15,11.41 -42.99,15.02 -22.78,5.21 -48.74,6.75 -73.73,3.2 -22.43,-3.2 -44.24,-10.53 -62.56,-23 -25.82,-17.58 -45.89,-37.99 -60.78,-61.82 -13.99,-22.39 -23.37,-47.77 -28.6,-76.6 -43.45,-23.52 -72.7,-61.05 -86.91,-103.11 -13.85,-40.98 -13.42,-86.31 1.99,-127.21 -43.53,-4.07 -84.47,-23.54 -115.21,-53.91 -31.58,-31.2 -52.51,-73.94 -54.62,-123.31l-7.49 -5.49c-28.75,-22.14 -52.51,-53.97 -66.16,-89 -12.81,-32.87 -16.81,-68.72 -7.86,-102.27 7.43,-27.85 20.57,-53.51 38.24,-75.46 17.66,-21.95 39.88,-40.26 65.44,-53.4l0.64 -0.33c8.97,-48.44 35.61,-87.84 71.2,-114.35 34.63,-25.81 77.83,-39.43 121.49,-37.41 -9.59,-42.63 -3.66,-87.56 15.74,-126.2 19.98,-39.74 54.18,-72.88 100.43,-90.11 1.88,-5.84 3.71,-11.16 5.85,-16.53 2.72,-6.84 5.88,-13.6 10.08,-21.32 14.73,-27.03 37.04,-52.26 63.58,-70.62 24.55,-16.99 52.86,-28.24 82.36,-29.85l11.13 -0.61 0 0.34c8.89,0 17.89,0.62 26.77,1.8 13.03,1.74 25.83,4.7 37.72,8.67 17.33,5.79 31.96,12.85 45.39,21.58 11.97,7.78 22.95,16.87 34.04,27.56 48.94,-6.49 94.62,6.69 130.84,32.36zm-119.62 620.18c-0.34,-3.95 -2.2,-7.9 -5.8,-10.92 -3.52,-2.93 -7.87,-4.15 -12.05,-3.79 -4.22,0.36 -8.3,2.34 -11.19,5.78 -3.01,3.64 -4.15,7.86 -3.81,11.83 0.19,2.21 0.86,4.4 1.89,6.39 1.01,1.99 2.43,3.77 4.13,5.2 3.01,2.57 7.12,4.03 11.88,3.62 4.73,-0.41 8.51,-2.57 11.05,-5.58 1.41,-1.72 2.5,-3.74 3.16,-5.85 0.67,-2.17 0.93,-4.44 0.74,-6.68zm43.15 -68.13c17.28,14.51 29.53,35.66 31.82,61.85l0.05 0.57c2.02,25.03 -6.2,48.53 -21.16,66.35 -15.08,17.98 -37.04,30.23 -62.26,32.43 -26.21,2.28 -49.15,-6.1 -66.41,-20.59 -9.46,-7.92 -17.22,-17.69 -22.84,-28.49 -5.62,-10.82 -9.18,-22.75 -10.25,-35.04 -1.95,-22.46 4.34,-46.06 21.23,-66.19 16.91,-20.16 39.08,-30.46 61.55,-32.43 12.23,-1.06 24.6,0.37 36.22,4.02 11.66,3.67 22.62,9.61 32.05,17.52z"/>
   <path class="fil5" d="M6460.47 17501.99c-27.38,22.98 -41.37,52.99 -44.02,83.4 -1.46,16.75 0.49,33.66 5.5,49.57 5.01,15.88 13.1,30.84 23.89,43.7 19.6,23.36 48.27,39.92 83.9,43.03 35.65,3.11 66.78,-8.21 90.15,-27.82 12.82,-10.76 23.39,-24.09 31.1,-38.9 7.71,-14.81 12.57,-31.11 14.02,-47.81 2.66,-30.42 -5.9,-62.43 -28.88,-89.82 -22.11,-26.35 -52.85,-41.26 -84.63,-44.04 -31.79,-2.78 -64.67,6.57 -91.03,28.69zm477.63 92.5c-6.69,-7.97 -9.52,-17.91 -8.69,-27.5 0.83,-9.6 5.36,-18.91 13.35,-25.62 7.97,-6.69 17.92,-9.52 27.51,-8.69 9.6,0.84 18.92,5.36 25.62,13.36 6.7,7.97 9.52,17.91 8.68,27.5 -0.81,9.37 -5.16,18.48 -12.79,25.14l-0.58 0.5c-7.97,6.68 -17.9,9.51 -27.49,8.67 -9.57,-0.84 -18.85,-5.35 -25.54,-13.28l-0.07 -0.08zm-321.4 -383.12c-6.69,-7.97 -9.52,-17.92 -8.69,-27.51 0.83,-9.6 5.36,-18.91 13.35,-25.62 7.97,-6.68 17.93,-9.52 27.51,-8.68 9.6,0.83 18.91,5.36 25.62,13.35 6.7,7.97 9.52,17.91 8.68,27.5 -0.82,9.39 -5.16,18.49 -12.79,25.14l-0.57 0.49c-7.97,6.68 -17.92,9.52 -27.49,8.68 -9.3,-0.81 -18.33,-5.11 -24.98,-12.65l-0.64 -0.7zm-463.28 187.77l-0.43 -0.5c-6.67,-7.97 -9.51,-17.92 -8.68,-27.49 0.82,-9.38 5.16,-18.47 12.79,-25.13l0.58 -0.5c7.97,-6.68 17.92,-9.52 27.49,-8.68 9.29,0.81 18.33,5.11 24.98,12.65l0.64 0.7c6.69,7.97 9.52,17.92 8.69,27.51 -0.83,9.6 -5.37,18.92 -13.35,25.62 -7.99,6.7 -17.92,9.52 -27.51,8.68 -9.4,-0.81 -18.53,-5.18 -25.2,-12.86zm34.84 498.88l-0.44 -0.51c-6.68,-7.97 -9.52,-17.92 -8.68,-27.49 0.81,-9.29 5.1,-18.32 12.65,-24.98l0.7 -0.64c7.97,-6.69 17.92,-9.52 27.51,-8.69 9.6,0.83 18.91,5.36 25.62,13.35 6.69,7.98 9.52,17.92 8.68,27.51 -0.81,9.37 -5.16,18.48 -12.79,25.14l-0.57 0.49c-7.97,6.68 -17.92,9.51 -27.49,8.68 -9.41,-0.82 -18.52,-5.18 -25.19,-12.86zm484.78 120.53c-6.7,-7.97 -9.52,-17.91 -8.68,-27.5 0.81,-9.37 5.15,-18.47 12.79,-25.14l0.58 -0.5c7.97,-6.68 17.9,-9.51 27.49,-8.67 9.57,0.84 18.85,5.35 25.54,13.28l0.07 0.08c6.69,7.97 9.52,17.91 8.69,27.5 -0.83,9.6 -5.37,18.92 -13.35,25.62 -7.97,6.69 -17.92,9.52 -27.51,8.69 -9.6,-0.84 -18.92,-5.36 -25.62,-13.36zm-143.48 -221.46l-60.95 244.34c-5.56,24.34 -2.97,47.34 5.35,67.23 7.03,16.82 18.16,31.49 31.86,42.91 13.73,11.44 30.12,19.71 47.65,23.72 20.76,4.75 43.17,3.5 64.72,-5.51 20.67,-8.64 31.65,-0.29 47.7,11.96 11.83,9.02 27.3,20.83 54.55,27.05 13.41,3.06 28.74,4.29 43.55,2.49 12.28,-1.48 24.13,-5.08 33.96,-11.45 19.14,-12.41 32.77,-27.37 42.23,-44.68 9.58,-17.53 15.07,-37.75 17.82,-60.36 0.93,-7.66 3.54,-14.25 7.82,-19.73 4.26,-5.45 10.04,-9.58 17.3,-12.32 21.97,-8.76 39.09,-23.99 50.63,-42.44 9.39,-15.01 15.14,-32.15 16.84,-49.66 1.72,-17.57 -0.56,-35.58 -7.2,-52.28 -8.1,-20.4 -22.8,-39.02 -44.7,-52.72l-211.5 -132.19c-5.68,6.12 -11.74,11.87 -18.1,17.21 -6.35,5.33 -13.07,10.29 -20.09,14.82l40.22 99.54c3.87,9.59 3.48,19.89 -0.27,28.72 -3.75,8.84 -10.91,16.27 -20.53,20.15 -9.58,3.87 -19.88,3.49 -28.72,-0.26 -8.85,-3.75 -16.28,-10.9 -20.16,-20.49l-40.17 -99.48c-8.13,1.6 -16.41,2.7 -24.77,3.28 -8.22,0.57 -16.58,0.62 -25.04,0.15zm197.51 -127.35l213.96 133.71c26.44,15.61 56.06,19.02 83.02,12.4 27.67,-6.8 52.62,-24.14 68.57,-49.66 5.89,-9.42 10.42,-19.9 13.2,-31.13 2.64,-10.69 3.76,-22.17 3.04,-34.21 -1.93,-22.55 9.62,-30.55 26.38,-42.13 13.07,-9.04 30.29,-20.96 44.93,-47.97 6.24,-11.55 11.36,-24.9 13.71,-38.48 1.96,-11.34 2,-22.85 -0.83,-33.49 -4.67,-17.53 -12.98,-33.7 -24.15,-47.54 -11.16,-13.83 -25.24,-25.38 -41.48,-33.73l-6.1 -3.14c-16.24,-7.86 -30.71,-14.87 -32.27,-36.94 -1.71,-24.33 -10.51,-45.32 -23.78,-61.87 -11.46,-14.31 -26.3,-25.41 -42.81,-32.59 -16.5,-7.17 -34.72,-10.44 -52.94,-9.16 -21.21,1.49 -42.47,9.19 -61.16,24.14l-193.17 162.11c4.06,7.26 7.68,14.8 10.83,22.59 3.11,7.65 5.76,15.56 7.91,23.67l106.97 -7.49c10.33,-0.73 20.01,2.81 27.26,9.1 7.26,6.3 12.15,15.39 12.88,25.73 0.73,10.33 -2.81,20.01 -9.1,27.26 -6.3,7.26 -15.39,12.15 -25.73,12.88l-107.11 7.48c-1,8.39 -2.51,16.62 -4.5,24.64 -2.04,8.19 -4.56,16.14 -7.53,23.82zm-60.12 -227.17l193.28 -162.16c17.97,-15.82 29.25,-35.44 34.38,-56.04 4.42,-17.75 4.34,-36.27 0.15,-53.76 -4.19,-17.46 -12.54,-33.96 -24.62,-47.73 -14.01,-15.96 -33.17,-28.29 -56.81,-34.18l-9.5 -2.37 0.17 -1.05c-12.88,-6.48 -16.39,-18.04 -21.13,-33.74 -4.2,-13.86 -9.68,-31.94 -26.75,-52.29 -9.19,-10.95 -21.11,-21.44 -34.42,-29.04 -11.17,-6.38 -23.25,-10.67 -35.35,-11.33l-3.9 -0.22c-16.75,-0.37 -33.29,2.59 -48.71,8.49 -16.7,6.39 -32.08,16.24 -44.94,29l-21.92 21.78 -1.09 -1.08c-2.53,1.38 -5.22,2.47 -8.01,3.22 -6.05,1.62 -12.56,1.79 -19.01,0.18 -23.66,-5.91 -46.45,-3.97 -66.45,3.66 -17.03,6.5 -32.07,17.12 -43.92,30.51 -11.87,13.4 -20.61,29.62 -25.03,47.29 -5.18,20.76 -4.38,43.6 4.29,66.33l94.27 233.29c8.13,-1.6 16.39,-2.7 24.74,-3.28 8.2,-0.56 16.56,-0.61 25,-0.14l25.97 -104.15c2.53,-10.1 8.9,-18.2 17.15,-23.14 8.23,-4.94 18.39,-6.73 28.43,-4.22l1.15 0.31c9.53,2.7 17.2,8.9 21.95,16.83 4.94,8.23 6.74,18.38 4.23,28.41l-25.97 104.08c7.53,3.5 14.87,7.49 21.96,11.93 7.11,4.41 13.92,9.31 20.41,14.61zm-234.69 -13.06l-94.27 -233.36c-9.5,-22.33 -24.77,-39.3 -42.91,-50.63 -15.42,-9.64 -32.98,-15.26 -50.87,-16.66 -17.88,-1.4 -36.1,1.38 -52.85,8.51 -19.67,8.38 -37.44,22.81 -50.37,43.52l-4.4 7.05 -0.78 -0.26c-10.35,11.3 -22.74,11.05 -39.74,10.73 -13.48,-0.26 -30.74,-0.58 -52.84,7.28 -13.91,4.95 -28.82,13.28 -41.26,24.11 -10.46,9.11 -19.09,19.91 -23.67,31.79 -6.52,16.9 -9.3,34.88 -8.42,52.65 0.89,17.74 5.48,35.36 13.67,51.57l3.13 6c8.44,15.8 16.14,30.21 4.4,49.02 -12.92,20.68 -18.13,42.91 -17.1,64.21 0.88,18.22 6.34,35.87 15.44,51.35 9.07,15.46 21.82,28.79 37.27,38.45 18.05,11.27 39.86,17.55 63.94,16.43l251.51 -17.61c1,-8.36 2.52,-16.58 4.51,-24.59 2.04,-8.18 4.55,-16.13 7.51,-23.79l-90.95 -56.83c-8.8,-5.5 -14.57,-14.06 -16.72,-23.43 -2.16,-9.33 -0.75,-19.54 4.73,-28.33 5.5,-8.8 14.06,-14.55 23.43,-16.72 9.36,-2.15 19.55,-0.74 28.32,4.74l91.05 56.88c5.69,-6.13 11.75,-11.89 18.13,-17.24 6.37,-5.34 13.08,-10.3 20.11,-14.84zm-84.95 219.15l-251.44 17.57c-23.94,2.21 -44.68,11.49 -61,25.18 -13.96,11.71 -24.74,26.68 -31.59,43.23 -6.88,16.61 -9.84,34.83 -8.2,52.99 1.93,21.21 10.18,42.49 25.89,61.2l6.23 7.41 -0.73 0.73c6.72,12.94 2.67,24.53 -2.77,40.13 -4.94,14.14 -11.39,32.61 -8.9,60.24 1.23,13.84 4.77,28.77 11.05,42.28 5.2,11.21 12.3,21.36 21.51,28.85 14.03,11.4 30.25,19.61 47.43,24.25 17.25,4.66 35.44,5.77 53.31,3l6.82 -1.2c17.71,-3.16 33.64,-5.99 47.91,11.03 15.68,18.69 35.21,30.51 55.79,36.08 17.68,4.78 36.12,5.02 53.6,1.16 17.49,-3.88 34.11,-11.9 48.07,-23.62 16.36,-13.72 29.12,-32.62 35.43,-55.96l60.89 -244.25c-7.5,-3.49 -14.81,-7.47 -21.88,-11.9 -7.07,-4.38 -13.87,-9.26 -20.34,-14.54l-82.23 69c-7.96,6.68 -17.88,9.5 -27.43,8.66 -9.58,-0.83 -18.87,-5.35 -25.56,-13.32 -6.67,-7.95 -9.5,-17.88 -8.66,-27.43 0.83,-9.58 5.35,-18.87 13.32,-25.56l82.2 -68.97c-4.07,-7.28 -7.7,-14.81 -10.82,-22.54 -3.11,-7.69 -5.76,-15.61 -7.9,-23.7zm-15.83 -568.97c11.58,-42.15 37.87,-79.06 73.12,-104.06 36.21,-25.68 81.9,-38.86 130.84,-32.37 11.09,-10.69 22.07,-19.78 34.04,-27.56 13.43,-8.73 28.06,-15.78 45.39,-21.57 11.9,-3.97 24.68,-6.94 37.67,-8.68 8.93,-1.18 17.92,-1.8 26.82,-1.8l0 -0.34 11.13 0.61c29.5,1.61 57.81,12.87 82.36,29.86 26.54,18.36 48.85,43.59 63.58,70.61 4.2,7.72 7.36,14.47 10.08,21.33 2.14,5.37 3.97,10.69 5.85,16.52 46.24,17.23 80.46,50.38 100.43,90.12 19.4,38.62 25.32,83.55 15.74,126.19 43.66,-2.02 86.86,11.6 121.49,37.41 35.59,26.51 62.23,65.91 71.2,114.35l0.64 0.33c25.55,13.14 47.77,31.44 65.44,53.4 17.66,21.95 30.81,47.62 38.24,75.47 8.95,33.55 4.95,69.39 -7.86,102.26 -13.65,35.03 -37.41,66.86 -66.16,89l-7.49 5.49c-2.11,49.37 -23.04,92.11 -54.62,123.31 -30.74,30.37 -71.68,49.84 -115.21,53.91 15.41,40.9 15.83,86.23 1.99,127.2 -14.21,42.06 -43.46,79.59 -86.91,103.1 -5.23,28.85 -14.6,54.23 -28.6,76.62 -14.89,23.83 -34.96,44.24 -60.78,61.82 -18.32,12.47 -40.12,19.8 -62.55,22.99 -24.99,3.56 -50.93,2.01 -73.7,-3.18 -15.86,-3.61 -29.78,-8.56 -43.03,-15.04 -11.66,-5.71 -22.74,-12.61 -34.14,-20.87 -47.58,13.25 -94.65,6.58 -134.05,-13.79 -38.41,-19.86 -69.59,-52.79 -86.93,-92.93 -34.16,27.29 -77.14,41.69 -120.38,41.18 -44.43,-0.52 -89.17,-16.74 -124.94,-50.76 -13.94,1.94 -26.97,2.84 -39.94,2.4 -14.8,-0.5 -29.41,-2.68 -45.02,-6.91 -22.9,-6.2 -45.74,-16.59 -65.53,-30.94 -18.13,-13.15 -33.81,-29.69 -44.81,-49.44 -14.02,-25.17 -22.38,-52.76 -24.91,-80.86 -2.52,-28.1 0.77,-56.73 10.05,-83.96l0.18 -0.53c-27.26,-41.13 -35.45,-87.99 -28.25,-131.8 7.01,-42.7 28.69,-82.54 61.54,-111.43 -36.52,-24.05 -63.52,-60.47 -76.38,-101.73 -13.2,-42.34 -11.6,-89.82 9.7,-134.36 -6.14,-12.63 -11.01,-24.74 -14.62,-37.25 -4.09,-14.11 -6.52,-28.67 -7.33,-45.02 -1.18,-23.59 1.66,-48.61 9.22,-71.98 6.91,-21.36 17.79,-41.44 33.13,-57.91 19.63,-21.05 43.28,-37.5 69.22,-48.56 25.87,-11.04 54.08,-16.73 82.87,-16.32l0.6 0.01c30.75,-38.76 72.76,-61.04 116.61,-67.72 42.76,-6.51 87.35,1.84 124.97,24.18zm198.57 505.16c-3.63,3.05 -5.49,7 -5.83,10.95 -0.19,2.24 0.07,4.51 0.74,6.64 0.66,2.15 1.75,4.17 3.18,5.87 2.52,3.03 6.3,5.19 11.03,5.6 4.76,0.41 8.87,-1.05 11.88,-3.58 1.7,-1.47 3.12,-3.25 4.13,-5.2 1.03,-2.03 1.7,-4.22 1.89,-6.43 0.34,-3.97 -0.8,-8.19 -3.83,-11.81 -2.87,-3.46 -6.95,-5.44 -11.17,-5.8 -4.18,-0.36 -8.53,0.86 -12.02,3.76zm-80.8 4.67c2.29,-26.19 14.54,-47.34 31.82,-61.85 9.43,-7.91 20.39,-13.85 32.05,-17.52 11.62,-3.65 23.99,-5.08 36.22,-4.02 22.47,1.97 44.64,12.27 61.55,32.43 16.89,20.13 23.18,43.73 21.23,66.19 -1.07,12.29 -4.63,24.22 -10.25,35.04 -5.62,10.8 -13.38,20.57 -22.84,28.49 -17.26,14.49 -40.2,22.87 -66.35,20.59 -25.28,-2.2 -47.24,-14.45 -62.32,-32.43 -14.96,-17.82 -23.18,-41.32 -21.16,-66.29l0.05 -0.63z"/>
   <path class="fil7" d="M12699.99 3382.71c2572.88,0 4902.2,1042.88 6588.3,2728.97 1686.09,1686.09 2728.98,4015.42 2728.98,6588.3 0,2572.88 -1042.89,4902.22 -2728.98,6588.31 -1686.09,1686.09 -4015.42,2728.98 -6588.3,2728.98 -2572.88,0 -4902.21,-1042.88 -6588.3,-2728.98 -1686.09,-1686.09 -2728.98,-4015.43 -2728.98,-6588.31 0,-2572.88 1042.89,-4902.21 2728.98,-6588.3 1686.08,-1686.08 4015.42,-2728.97 6588.3,-2728.97zm6358.82 2958.45c-1627.35,-1627.34 -3875.55,-2633.89 -6358.82,-2633.89 -2483.28,0 -4731.48,1006.55 -6358.82,2633.89 -1627.35,1627.35 -2633.9,3875.54 -2633.9,6358.82 0,2483.28 1006.55,4731.48 2633.9,6358.83 1627.34,1627.35 3875.54,2633.9 6358.82,2633.9 2483.28,0 4731.47,-1006.55 6358.82,-2633.9 1627.35,-1627.35 2633.9,-3875.55 2633.9,-6358.83 0,-2483.28 -1006.55,-4731.47 -2633.9,-6358.82z"/>
  </g>
 </g>
</svg>
